<?xml version="1.0" encoding="UTF-8"?>
<svg width="90" height="30" viewBox="0 0 90 30" xmlns="http://www.w3.org/2000/svg" xmlns:xlink="http://www.w3.org/1999/xlink" xml:space="preserve" version="1.1"  baseProfile="full">
 <g id="mainlayer" font-size="10" style="font-family: monospace">
<rect style="fill:#000" x="0" y="0" width="6" height="10"/>
<rect style="fill:#000" x="6" y="0" width="6" height="10"/>
<rect style="fill:#000" x="12" y="0" width="6" height="10"/>
<rect style="fill:#000" x="18" y="0" width="6" height="10"/>
<rect style="fill:#000" x="24" y="0" width="6" height="10"/>
<rect style="fill:#000" x="30" y="0" width="6" height="10"/>
<rect style="fill:#000" x="36" y="0" width="6" height="10"/>
<rect style="fill:#000" x="42" y="0" width="6" height="10"/>
<rect style="fill:#000" x="48" y="0" width="6" height="10"/>
<rect style="fill:#000" x="54" y="0" width="6" height="10"/>
<rect style="fill:#000" x="60" y="0" width="6" height="10"/>
<rect style="fill:#000" x="66" y="0" width="6" height="10"/>
<rect style="fill:#000" x="72" y="0" width="6" height="10"/>
<rect style="fill:#000" x="78" y="0" width="6" height="10"/>
<rect style="fill:#000" x="84" y="0" width="6" height="10"/>
<rect style="fill:#000" x="0" y="10" width="6" height="10"/>
<rect style="fill:#000" x="6" y="10" width="6" height="10"/>
<rect style="fill:#000" x="12" y="10" width="6" height="10"/>
<rect style="fill:#000" x="18" y="10" width="6" height="10"/>
<rect style="fill:#000" x="24" y="10" width="6" height="10"/>
<rect style="fill:#000" x="30" y="10" width="6" height="10"/>
<rect style="fill:#000" x="36" y="10" width="6" height="10"/>
<rect style="fill:#000" x="42" y="10" width="6" height="10"/>
<rect style="fill:#000" x="48" y="10" width="6" height="10"/>
<rect style="fill:#000" x="54" y="10" width="6" height="10"/>
<rect style="fill:#000" x="60" y="10" width="6" height="10"/>
<rect style="fill:#000" x="66" y="10" width="6" height="10"/>
<rect style="fill:#000" x="72" y="10" width="6" height="10"/>
<rect style="fill:#000" x="78" y="10" width="6" height="10"/>
<rect style="fill:#000" x="84" y="10" width="6" height="10"/>
<rect style="fill:#000" x="0" y="20" width="6" height="10"/>
<rect style="fill:#000" x="6" y="20" width="6" height="10"/>
<rect style="fill:#000" x="12" y="20" width="6" height="10"/>
<rect style="fill:#000" x="18" y="20" width="6" height="10"/>
<rect style="fill:#000" x="24" y="20" width="6" height="10"/>
<rect style="fill:#000" x="30" y="20" width="6" height="10"/>
<rect style="fill:#000" x="36" y="20" width="6" height="10"/>
<rect style="fill:#000" x="42" y="20" width="6" height="10"/>
<rect style="fill:#000" x="48" y="20" width="6" height="10"/>
<rect style="fill:#000" x="54" y="20" width="6" height="10"/>
<rect style="fill:#000" x="60" y="20" width="6" height="10"/>
<rect style="fill:#000" x="66" y="20" width="6" height="10"/>
<rect style="fill:#000" x="72" y="20" width="6" height="10"/>
<rect style="fill:#000" x="78" y="20" width="6" height="10"/>
<rect style="fill:#000" x="84" y="20" width="6" height="10"/>
<text style="fill:#f5f" x="0" y="8">┌</text>
<text style="fill:#f5f" x="6" y="8">─</text>
<text style="fill:#f55" x="12" y="8">─</text>
<text style="fill:#f55" x="18" y="8">─</text>
<text style="fill:#ff5" x="24" y="8">─</text>
<text style="fill:#ff5" x="30" y="8">─</text>
<text style="fill:#5f5" x="36" y="8">─</text>
<text style="fill:#5f5" x="42" y="8">─</text>
<text style="fill:#5ff" x="48" y="8">─</text>
<text style="fill:#5ff" x="54" y="8">─</text>
<text style="fill:#55f" x="60" y="8">─</text>
<text style="fill:#55f" x="66" y="8">─</text>
<text style="fill:#f5f" x="72" y="8">─</text>
<text style="fill:#f5f" x="78" y="8">─</text>
<text style="fill:#f55" x="84" y="8">┐</text>
<text style="fill:#f55" x="0" y="18">│</text>
<text style="fill:#f55" x="6" y="18">N</text>
<text style="fill:#ff5" x="12" y="18">o</text>
<text style="fill:#ff5" x="18" y="18">e</text>
<text style="fill:#5f5" x="24" y="18">t</text>
<text style="fill:#5f5" x="30" y="18">i</text>
<text style="fill:#5ff" x="36" y="18">c</text>
<text style="fill:#55f" x="48" y="18">N</text>
<text style="fill:#55f" x="54" y="18">o</text>
<text style="fill:#f5f" x="60" y="18">g</text>
<text style="fill:#f5f" x="66" y="18">g</text>
<text style="fill:#f55" x="72" y="18">i</text>
<text style="fill:#f55" x="78" y="18">n</text>
<text style="fill:#ff5" x="84" y="18">│</text>
<text style="fill:#ff5" x="0" y="28">└</text>
<text style="fill:#ff5" x="6" y="28">─</text>
<text style="fill:#5f5" x="12" y="28">─</text>
<text style="fill:#5f5" x="18" y="28">─</text>
<text style="fill:#5ff" x="24" y="28">─</text>
<text style="fill:#5ff" x="30" y="28">─</text>
<text style="fill:#55f" x="36" y="28">─</text>
<text style="fill:#55f" x="42" y="28">─</text>
<text style="fill:#f5f" x="48" y="28">─</text>
<text style="fill:#f5f" x="54" y="28">─</text>
<text style="fill:#f55" x="60" y="28">─</text>
<text style="fill:#f55" x="66" y="28">─</text>
<text style="fill:#ff5" x="72" y="28">─</text>
<text style="fill:#ff5" x="78" y="28">─</text>
<text style="fill:#5f5" x="84" y="28">┘</text>
 </g>
</svg>